# xmcd CD database file
#
# Track frame offsets:
#	150
#	19630
#	42262
#	69562
#	96975
#	118395
#	145602
#	170505
#
# Disc length: 2531 seconds
#
# Revision: 0
# Processed by: cddbd v1.5.1PL0 Copyright (c) Steve Scherf et al.
# Submitted via: CDex 1.51
#
DISCID=6c09e108
DTITLE=パール兄弟 - LOUD,BOOST&SWIM!
DYEAR=1992
DGENRE=JPop
TTITLE0=She's Not There feat. ABRAHAM LABORIEL)
TTITLE1=TAIYO SOURCE(Ecological Ragga Mix)
TTITLE2=KIMINI MANYO MANYO(Techno Death Mix)
TTITLE3=POMP DA!(Remix Vocal Club)
TTITLE4=POMP DA!(Inst. Club Dub)
TTITLE5=KIMINI MANYO MANYO(Death Inst.)
TTITLE6=TAIYO SOURCE(Shaking Pipe Mix)
TTITLE7=She's Not There (Boost Mix Inst.)
EXTD=YEAR: 1992
EXTT0=
EXTT1=
EXTT2=
EXTT3=
EXTT4=
EXTT5=
EXTT6=
EXTT7=
PLAYORDER=
